<svg width="78" height="78" viewBox="0 0 78 78" fill="none" xmlns="http://www.w3.org/2000/svg">
<path d="M43.875 36.5625V73.125C43.875 74.4575 42.77 75.5625 41.4375 75.5625H4.875C3.51 75.5625 2.4375 74.4575 2.4375 73.125V39C2.4375 37.635 3.51 36.5625 4.875 36.5625H21.9375" stroke="#EEE5E0" stroke-width="2" stroke-linecap="round" stroke-linejoin="round"/>
<g opacity="0.3">
<path d="M43.875 36.5625V73.125C43.875 74.4575 42.77 75.5625 41.4375 75.5625H4.875C3.51 75.5625 2.4375 74.4575 2.4375 73.125V39C2.4375 37.635 3.51 36.5625 4.875 36.5625H21.9375" fill="#EEE5E0"/>
<path d="M43.875 36.5625V73.125C43.875 74.4575 42.77 75.5625 41.4375 75.5625H4.875C3.51 75.5625 2.4375 74.4575 2.4375 73.125V39C2.4375 37.635 3.51 36.5625 4.875 36.5625H21.9375" stroke="#EEE5E0" stroke-width="2" stroke-linecap="round" stroke-linejoin="round"/>
</g>
<path d="M14.625 36.5625V4.875C14.625 3.51 15.6975 2.4375 17.0625 2.4375H51.1875C52.52 2.4375 53.625 3.51 53.625 4.875V34.125C53.625 35.4575 52.52 36.5625 51.1875 36.5625H17.5" stroke="#EEE5E0" stroke-width="2" stroke-linecap="round" stroke-linejoin="round"/>
<path d="M53.625 19.5H73.125C74.4575 19.5 75.5625 20.5725 75.5625 21.9375V51.1875C75.5625 52.52 74.4575 53.625 73.125 53.625H43.875" stroke="#EEE5E0" stroke-width="2" stroke-linecap="round" stroke-linejoin="round"/>
</svg>
